<svg width="36" height="36" viewBox="0 0 36 36" fill="none" xmlns="http://www.w3.org/2000/svg">
<path d="M36 31C36 33.762 33.762 36 31 36H5C2.238 36 0 33.762 0 31V5C0 2.238 2.238 0 5 0H31C33.762 0 36 2.238 36 5V31Z" fill="#333333"/>
<path d="M36 31C36 33.762 33.762 36 31 36H5C2.238 36 0 33.762 0 31V5C0 2.238 2.238 0 5 0H31C33.762 0 36 2.238 36 5V31Z" fill="url(#paint0_linear)"/>
<path d="M15.3333 20.6667H7.33333C6.59667 20.6667 6 20.07 6 19.3333V7.33333C6 6.59667 6.59667 6 7.33333 6H15.3333C16.07 6 16.6667 6.59667 16.6667 7.33333V19.3333C16.6667 20.07 16.07 20.6667 15.3333 20.6667Z" fill="#61AFEF"/>
<path d="M28.6667 12.6667H20.6667C19.93 12.6667 19.3333 12.07 19.3333 11.3333V7.33333C19.3333 6.59667 19.93 6 20.6667 6H28.6667C29.4033 6 30 6.59667 30 7.33333V11.3333C30 12.07 29.4033 12.6667 28.6667 12.6667Z" fill="#E06C75"/>
<path d="M15.3333 30H7.33333C6.59667 30 6 29.4033 6 28.6666V24.6666C6 23.93 6.59667 23.3333 7.33333 23.3333H15.3333C16.07 23.3333 16.6667 23.93 16.6667 24.6666V28.6666C16.6667 29.4033 16.07 30 15.3333 30Z" fill="#C678DD"/>
<path d="M28.6667 30H20.6667C19.93 30 19.3333 29.4033 19.3333 28.6666V16.6666C19.3333 15.93 19.93 15.3333 20.6667 15.3333H28.6667C29.4033 15.3333 30 15.93 30 16.6666V28.6666C30 29.4033 29.4033 30 28.6667 30Z" fill="#98C379"/>
<defs>
<linearGradient id="paint0_linear" x1="18" y1="-6" x2="23.6239" y2="40.3171" gradientUnits="userSpaceOnUse">
<stop stop-color="#5B6374"/>
<stop offset="0.484375" stop-color="#434956"/>
<stop offset="1" stop-color="#282C34"/>
</linearGradient>
</defs>
</svg>
